M48
; DRILL file KiCad 10.0.3 date 2026-05-21T17:22:58
; FORMAT={-:-/ absolute / metric / decimal}
; #@! TF.CreationDate,2026-05-21T17:22:58-03:00
; #@! TF.GenerationSoftware,Kicad,Pcbnew,10.0.3
; #@! TF.FileFunction,Plated,1,2,PTH
FMAT,2
METRIC
; #@! TA.AperFunction,Plated,PTH,ViaDrill
T1C0.300
; #@! TA.AperFunction,Plated,PTH,ComponentDrill
T2C0.800
; #@! TA.AperFunction,Plated,PTH,ComponentDrill
T3C1.000
; #@! TA.AperFunction,Plated,PTH,ComponentDrill
T4C1.100
; #@! TA.AperFunction,Plated,PTH,ComponentDrill
T5C1.200
; #@! TA.AperFunction,Plated,PTH,ComponentDrill
T6C1.300
%
G90
G05
T1
X53.762Y-112.627
X53.762Y-124.127
X57.762Y-70.627
X57.762Y-78.627
X59.262Y-135.127
X64.762Y-135.127
X66.262Y-117.127
X66.262Y-128.627
X69.762Y-126.627
X86.762Y-126.627
X90.262Y-94.127
X90.262Y-106.627
X90.762Y-110.127
X90.762Y-118.127
X94.262Y-149.627
X94.262Y-155.627
X95.262Y-150.627
X95.262Y-155.627
X96.762Y-96.627
X100.167Y-84.222
X104.762Y-101.127
X104.762Y-119.627
X105.762Y-114.627
X105.762Y-119.627
X107.262Y-134.627
X107.262Y-145.127
X107.762Y-84.127
X110.762Y-99.627
X111.762Y-96.627
X113.762Y-71.627
X113.762Y-86.127
X115.762Y-99.627
X119.262Y-136.127
X119.262Y-143.627
X120.262Y-136.127
X120.262Y-144.627
X121.262Y-137.127
X121.262Y-144.627
X123.222Y-108.667
X125.25Y-121.75
X131.262Y-83.627
X131.262Y-93.127
X132.25Y-131.25
X132.262Y-101.127
X133.762Y-114.127
X133.762Y-119.25
X135.75Y-121.75
X135.75Y-131.25
X137.762Y-101.127
X142.762Y-108.627
T2
X56.952Y-115.627
X57.0Y-120.627
X57.0Y-125.627
X57.0Y-132.75
X57.722Y-80.897
X60.262Y-78.358
X60.73Y-91.037
X60.952Y-86.627
X61.147Y-104.087
X61.147Y-109.167
X62.802Y-80.897
X63.687Y-106.627
X64.572Y-115.627
X64.62Y-120.627
X64.62Y-125.627
X64.62Y-132.75
X67.19Y-132.75
X67.222Y-80.897
X68.35Y-91.037
X68.572Y-86.627
X69.5Y-143.0
X69.762Y-78.358
X69.952Y-101.127
X70.5Y-150.0
X71.5Y-143.0
X72.302Y-80.897
X72.602Y-109.21
X72.602Y-111.75
X72.602Y-114.29
X72.602Y-116.83
X72.602Y-119.37
X72.602Y-121.91
X72.602Y-124.45
X74.81Y-132.75
X77.452Y-132.75
X77.572Y-101.127
X77.762Y-75.877
X77.762Y-78.377
X77.762Y-83.817
X77.762Y-91.438
X78.5Y-146.5
X79.952Y-101.127
X81.452Y-80.627
X82.762Y-109.21
X82.762Y-111.75
X82.762Y-114.29
X82.762Y-116.83
X82.762Y-119.37
X82.762Y-121.91
X82.762Y-124.45
X83.695Y-88.0
X85.072Y-132.75
X86.235Y-85.46
X86.235Y-90.54
X86.5Y-146.5
X87.572Y-101.127
X87.81Y-132.75
X89.072Y-80.627
X92.452Y-102.627
X92.452Y-107.627
X92.452Y-112.627
X92.452Y-120.627
X92.452Y-125.627
X94.334Y-146.5
X95.142Y-87.127
X95.262Y-77.627
X95.322Y-82.257
X95.43Y-132.75
X96.722Y-92.897
X99.262Y-90.358
X100.072Y-102.627
X100.072Y-107.627
X100.072Y-112.627
X100.072Y-120.627
X100.072Y-125.627
X101.802Y-92.897
X102.5Y-146.5
X102.762Y-87.127
X102.882Y-77.627
X102.942Y-82.257
X106.762Y-103.377
X106.762Y-105.877
X108.492Y-73.587
X108.492Y-78.667
X108.492Y-81.587
X108.492Y-86.667
X108.992Y-118.087
X108.992Y-123.167
X108.992Y-126.087
X108.992Y-131.167
X110.048Y-146.5
X111.032Y-76.127
X111.032Y-84.127
X111.532Y-120.627
X111.532Y-128.627
X111.722Y-91.897
X112.222Y-135.898
X114.262Y-89.358
X114.762Y-133.357
X116.802Y-91.897
X117.302Y-135.898
X117.492Y-76.127
X117.492Y-84.127
X117.905Y-146.5
X118.992Y-120.627
X118.992Y-128.627
X120.032Y-73.587
X120.032Y-78.667
X120.032Y-81.587
X120.032Y-86.667
X120.762Y-103.377
X120.762Y-105.877
X121.532Y-118.087
X121.532Y-123.167
X121.532Y-126.087
X121.532Y-131.167
X125.762Y-145.25
X125.762Y-147.25
X127.492Y-88.087
X127.492Y-93.167
X127.492Y-96.587
X127.492Y-101.667
X128.0Y-77.44
X128.0Y-85.06
X128.222Y-135.398
X128.262Y-129.127
X129.32Y-104.71
X130.032Y-90.627
X130.032Y-99.127
X130.262Y-129.127
X130.762Y-132.857
X133.302Y-135.398
X133.5Y-77.44
X133.5Y-85.06
X135.722Y-135.398
X136.425Y-129.175
X136.94Y-104.71
X136.992Y-90.127
X136.992Y-98.627
X138.262Y-132.857
X138.5Y-77.44
X138.5Y-85.06
X138.925Y-129.175
X139.532Y-87.587
X139.532Y-92.667
X139.532Y-96.087
X139.532Y-101.167
X140.802Y-135.398
T3
X110.762Y-103.587
X110.762Y-106.127
X110.762Y-108.667
X115.762Y-103.587
X115.762Y-106.127
X115.762Y-108.667
T4
X138.0Y-114.17
X138.0Y-116.71
X138.0Y-119.25
T5
X99.762Y-130.627
X99.762Y-135.707
T6
X60.762Y-143.627
X60.762Y-148.627
X137.282Y-144.25
X137.282Y-149.25
M30
